<?xml version="1.0" encoding="UTF-8"?>
<svg version="1.1" xmlns="http://www.w3.org/2000/svg" width="1024" height="1024">
<path d="M0 0 C337.92 0 675.84 0 1024 0 C1024 337.92 1024 675.84 1024 1024 C686.08 1024 348.16 1024 0 1024 C0 686.08 0 348.16 0 0 Z " fill="#030303" transform="translate(0,0)"/>
<path d="M0 0 C1.19268997 -0.00570007 2.38537994 -0.01140015 3.61421204 -0.01727295 C6.1312269 -0.02667142 8.64825378 -0.03323628 11.1652832 -0.03710938 C14.93268618 -0.04673299 18.69952336 -0.07777326 22.46679688 -0.109375 C37.97761848 -0.17744433 52.9787572 0.78473607 68.30078125 3.203125 C69.58799072 3.40196289 70.8752002 3.60080078 72.20141602 3.80566406 C75.22589948 4.3061492 78.23120354 4.85762333 81.23828125 5.453125 C82.3048999 5.66291992 83.37151855 5.87271484 84.47045898 6.08886719 C120.97389246 13.52420539 156.3237704 27.0688667 188.30078125 46.203125 C189.05875 46.65623047 189.81671875 47.10933594 190.59765625 47.57617188 C208.31398394 58.267565 224.88951964 70.3969028 240.30078125 84.203125 C241.27917969 85.07066406 242.25757813 85.93820313 243.265625 86.83203125 C255.46027583 97.81540133 267.19574996 109.24981739 277.30078125 122.203125 C278.17903543 123.26052555 279.0607524 124.31505644 279.9453125 125.3671875 C306.34418825 157.03953902 325.43656202 194.18186706 338.30078125 233.203125 C338.62030762 234.1715332 338.93983398 235.13994141 339.26904297 236.13769531 C344.78519846 253.17924208 348.35821013 270.56164414 351.30078125 288.203125 C351.57196777 289.77465332 351.57196777 289.77465332 351.84863281 291.37792969 C365.62642995 374.78427621 344.39792674 467.56605763 295.30078125 536.203125 C292.36642645 540.2562639 289.36775127 544.24952183 286.30078125 548.203125 C285.63304687 549.06550781 284.9653125 549.92789063 284.27734375 550.81640625 C280.26248467 555.91829239 276.05478969 560.79704394 271.671875 565.5859375 C269.77169326 567.68333745 267.91769734 569.80594505 266.0703125 571.94921875 C262.07346492 576.52500138 257.84809964 580.84788115 253.55078125 585.140625 C252.75655762 585.93404297 251.96233398 586.72746094 251.14404297 587.54492188 C246.23899825 592.39902844 241.2903386 596.96790222 235.84765625 601.21484375 C233.04818629 603.40031953 230.37089753 605.70292386 227.67578125 608.015625 C178.58059794 648.85475053 117.12849147 672.07397268 54.30078125 680.203125 C53.42583008 680.32316895 52.55087891 680.44321289 51.64941406 680.56689453 C24.19904689 684.26107752 -4.36409581 683.1321034 -31.69921875 679.203125 C-32.73288574 679.05858887 -33.76655273 678.91405273 -34.83154297 678.76513672 C-109.02115324 668.15319025 -175.12745641 632.01320242 -227.76171875 579.328125 C-229.07922119 578.00941406 -229.07922119 578.00941406 -230.42333984 576.6640625 C-236.26833076 570.76342579 -241.61213663 564.76743751 -246.69921875 558.203125 C-248.25947092 556.38868964 -249.82213326 554.57632507 -251.38671875 552.765625 C-263.11755703 538.66676036 -272.89301203 523.25654491 -281.69921875 507.203125 C-282.14861816 506.39858887 -282.59801758 505.59405273 -283.06103516 504.76513672 C-305.28079391 464.85785096 -318.88433936 419.71691087 -322.69921875 374.203125 C-322.79130615 373.12377686 -322.88339355 372.04442871 -322.97827148 370.93237305 C-325.20275922 341.7462146 -325.03294579 312.02091286 -319.69921875 283.203125 C-319.41836426 281.6253125 -319.41836426 281.6253125 -319.13183594 280.015625 C-316.37508941 264.77972021 -312.37612022 249.95512982 -307.69921875 235.203125 C-307.42883789 234.34799316 -307.15845703 233.49286133 -306.87988281 232.61181641 C-292.89862105 189.10219824 -269.64221535 149.5563304 -239.69921875 115.203125 C-238.68408203 114.01976562 -238.68408203 114.01976562 -237.6484375 112.8125 C-226.69636375 100.30799637 -214.84360492 88.3874368 -201.69921875 78.203125 C-199.98949642 76.76727732 -198.28121769 75.32970931 -196.57421875 73.890625 C-142.71631147 29.94989611 -69.95958511 0.26671616 0 0 Z " fill="#040404" transform="translate(496.69921875,169.796875)"/>
<path d="M0 0 C1.19268997 -0.00570007 2.38537994 -0.01140015 3.61421204 -0.01727295 C6.1312269 -0.02667142 8.64825378 -0.03323628 11.1652832 -0.03710938 C14.93268618 -0.04673299 18.69952336 -0.07777326 22.46679688 -0.109375 C37.97761848 -0.17744433 52.9787572 0.78473607 68.30078125 3.203125 C69.58799072 3.40196289 70.8752002 3.60080078 72.20141602 3.80566406 C75.22589948 4.3061492 78.23120354 4.85762333 81.23828125 5.453125 C82.3048999 5.66291992 83.37151855 5.87271484 84.47045898 6.08886719 C120.97389246 13.52420539 156.3237704 27.0688667 188.30078125 46.203125 C189.05875 46.65623047 189.81671875 47.10933594 190.59765625 47.57617188 C208.31398394 58.267565 224.88951964 70.3969028 240.30078125 84.203125 C241.27917969 85.07066406 242.25757813 85.93820313 243.265625 86.83203125 C255.46027583 97.81540133 267.19574996 109.24981739 277.30078125 122.203125 C278.17903543 123.26052555 279.0607524 124.31505644 279.9453125 125.3671875 C306.34418825 157.03953902 325.43656202 194.18186706 338.30078125 233.203125 C338.62030762 234.1715332 338.93983398 235.13994141 339.26904297 236.13769531 C344.78519846 253.17924208 348.35821013 270.56164414 351.30078125 288.203125 C351.57196777 289.77465332 351.57196777 289.77465332 351.84863281 291.37792969 C365.62642995 374.78427621 344.39792674 467.56605763 295.30078125 536.203125 C292.36642645 540.2562639 289.36775127 544.24952183 286.30078125 548.203125 C285.63304687 549.06550781 284.9653125 549.92789063 284.27734375 550.81640625 C280.26248467 555.91829239 276.05478969 560.79704394 271.671875 565.5859375 C269.77169326 567.68333745 267.91769734 569.80594505 266.0703125 571.94921875 C262.07346492 576.52500138 257.84809964 580.84788115 253.55078125 585.140625 C252.75655762 585.93404297 251.96233398 586.72746094 251.14404297 587.54492188 C246.23899825 592.39902844 241.2903386 596.96790222 235.84765625 601.21484375 C233.04818629 603.40031953 230.37089753 605.70292386 227.67578125 608.015625 C178.58059794 648.85475053 117.12849147 672.07397268 54.30078125 680.203125 C53.42583008 680.32316895 52.55087891 680.44321289 51.64941406 680.56689453 C24.19904689 684.26107752 -4.36409581 683.1321034 -31.69921875 679.203125 C-32.73288574 679.05858887 -33.76655273 678.91405273 -34.83154297 678.76513672 C-109.02115324 668.15319025 -175.12745641 632.01320242 -227.76171875 579.328125 C-229.07922119 578.00941406 -229.07922119 578.00941406 -230.42333984 576.6640625 C-236.26833076 570.76342579 -241.61213663 564.76743751 -246.69921875 558.203125 C-248.25947092 556.38868964 -249.82213326 554.57632507 -251.38671875 552.765625 C-263.11755703 538.66676036 -272.89301203 523.25654491 -281.69921875 507.203125 C-282.14861816 506.39858887 -282.59801758 505.59405273 -283.06103516 504.76513672 C-305.28079391 464.85785096 -318.88433936 419.71691087 -322.69921875 374.203125 C-322.79130615 373.12377686 -322.88339355 372.04442871 -322.97827148 370.93237305 C-325.20275922 341.7462146 -325.03294579 312.02091286 -319.69921875 283.203125 C-319.41836426 281.6253125 -319.41836426 281.6253125 -319.13183594 280.015625 C-316.37508941 264.77972021 -312.37612022 249.95512982 -307.69921875 235.203125 C-307.42883789 234.34799316 -307.15845703 233.49286133 -306.87988281 232.61181641 C-292.89862105 189.10219824 -269.64221535 149.5563304 -239.69921875 115.203125 C-238.68408203 114.01976562 -238.68408203 114.01976562 -237.6484375 112.8125 C-226.69636375 100.30799637 -214.84360492 88.3874368 -201.69921875 78.203125 C-199.98949642 76.76727732 -198.28121769 75.32970931 -196.57421875 73.890625 C-142.71631147 29.94989611 -69.95958511 0.26671616 0 0 Z M-41.69921875 33.203125 C-42.75850586 33.41211426 -43.81779297 33.62110352 -44.90917969 33.83642578 C-93.04241634 43.39576391 -138.38584754 64.63622895 -176.69921875 95.203125 C-177.71628906 96.00621094 -178.73335938 96.80929687 -179.78125 97.63671875 C-197.10783605 111.54260541 -214.31988241 127.42236212 -227.69921875 145.203125 C-228.6347312 146.4106876 -229.5709856 147.61767561 -230.5078125 148.82421875 C-261.20612752 188.6959475 -281.23724419 234.84858574 -290.57421875 284.265625 C-290.86087402 285.77733276 -290.86087402 285.77733276 -291.15332031 287.31958008 C-294.23177912 304.73298569 -295.07541118 322.11327668 -295.01171875 339.765625 C-295.01056061 340.76693451 -295.00940247 341.76824402 -295.00820923 342.79989624 C-294.97177613 358.78416457 -294.19961193 374.39086236 -291.69921875 390.203125 C-291.58175293 390.99734863 -291.46428711 391.79157227 -291.34326172 392.60986328 C-290.613872 397.50962099 -289.71805716 402.35578807 -288.69921875 407.203125 C-288.46428711 408.3478125 -288.46428711 408.3478125 -288.22460938 409.515625 C-277.83660152 459.18701887 -254.13815782 508.45116173 -219.1484375 545.578125 C-217.18680327 547.68054638 -215.29914397 549.81200426 -213.421875 551.98828125 C-209.59729017 556.37613715 -205.56650298 560.5280179 -201.44921875 564.640625 C-200.70196533 565.38707275 -199.95471191 566.13352051 -199.18481445 566.90258789 C-194.40294894 571.63183173 -189.55821354 576.05574924 -184.25390625 580.1953125 C-182.53260425 581.54814007 -180.84985105 582.95131411 -179.20703125 584.3984375 C-136.95426427 621.50738937 -80.76863412 643.20466235 -25.69921875 651.203125 C-24.90708984 651.32171875 -24.11496094 651.4403125 -23.29882812 651.5625 C54.81473851 662.69318634 137.19647685 639.26060365 200.22167969 592.76660156 C221.041871 577.10989593 241.44286604 558.92862423 257.30078125 538.203125 C258.07164062 537.23761719 258.8425 536.27210938 259.63671875 535.27734375 C274.05684948 517.01336114 286.31756482 497.08310645 296.38037109 476.11328125 C297.26272423 474.28210593 298.16606839 472.46108997 299.0703125 470.640625 C313.86000511 440.1932217 321.15966895 407.38979512 324.98632812 373.94848633 C325.17919242 372.26466725 325.38143044 370.58184946 325.59960938 368.90112305 C326.63608935 360.22619576 326.54370467 351.48970043 326.55078125 342.765625 C326.55178833 341.90341339 326.55279541 341.04120178 326.55383301 340.15286255 C326.5419066 324.98650775 325.61040343 310.21318035 323.30078125 295.203125 C323.1615625 294.26871582 323.02234375 293.33430664 322.87890625 292.37158203 C312.59924265 225.16114257 280.81235767 165.77661955 233.17578125 117.828125 C232.67048889 117.31738434 232.16519653 116.80664368 231.64459229 116.28042603 C224.88034577 109.46194581 217.86512462 103.13793497 210.30078125 97.203125 C209.57036621 96.62401367 208.83995117 96.04490234 208.08740234 95.44824219 C167.34133687 63.35938263 120.8701943 42.46335098 69.86328125 32.890625 C69.08573486 32.74326904 68.30818848 32.59591309 67.50708008 32.4440918 C49.53975425 29.3109602 31.49850469 28.79615413 13.30078125 28.828125 C12.13235687 28.82866882 10.9639325 28.82921265 9.76010132 28.82977295 C-7.76659229 28.86725038 -24.51017138 29.56043146 -41.69921875 33.203125 Z " fill="#FAFAFA" transform="translate(496.69921875,169.796875)"/>
<path d="M0 0 C2.08481772 0.00157376 4.17007751 0.05755788 6.25244141 0.15869141 C7.90441025 0.17991562 7.90441025 0.17991562 9.5897522 0.2015686 C13.09730328 0.25742281 16.59839471 0.3828384 20.10400391 0.51025391 C22.48542186 0.5604265 24.86694026 0.60605178 27.24853516 0.64697266 C33.07755105 0.75705183 38.9028162 0.92422603 44.72900391 1.13525391 C44.17574748 4.34588558 43.46671815 7.0256032 41.9699707 9.91796875 C41.60787003 10.62511017 41.24576935 11.33225159 40.87269592 12.06082153 C40.28143166 13.19207962 40.28143166 13.19207962 39.67822266 14.34619141 C39.26861801 15.14169403 38.85901337 15.93719666 38.43699646 16.75680542 C37.10274833 19.3443934 35.7597253 21.9273143 34.41650391 24.51025391 C33.48678915 26.3091412 32.55759254 28.10829638 31.62890625 29.90771484 C26.62642567 39.59116797 21.59489916 49.25970632 16.52856445 58.90991211 C13.15382648 65.35523711 9.83722829 71.82897896 6.53369141 78.31103516 C-11.16732991 113.03761282 -11.16732991 113.03761282 -18.20849609 125.7409668 C-21.84803162 132.31257017 -25.32426735 138.9606925 -28.77099609 145.63525391 C-33.78152037 155.32914208 -38.93622276 164.93201194 -44.18505859 174.49853516 C-49.94911936 185.00674741 -55.60098246 195.57610877 -61.27099609 206.13525391 C-61.91145052 207.32747815 -62.55191286 208.51969815 -63.19238281 209.71191406 C-64.82150095 212.74488892 -66.44950305 215.77846071 -68.07675171 218.81243896 C-68.97420237 220.48551834 -69.87221751 222.15829488 -70.77026367 223.83105469 C-75.99041241 233.5721005 -81.12322779 243.35449412 -86.27099609 253.13525391 C-66.14099609 253.13525391 -46.01099609 253.13525391 -25.27099609 253.13525391 C-24.28099609 250.16525391 -24.28099609 250.16525391 -23.27099609 247.13525391 C-22.65078194 245.75919886 -21.99755731 244.39736896 -21.30664062 243.05541992 C-20.92463501 242.3083931 -20.54262939 241.56136627 -20.14904785 240.79170227 C-19.7381189 239.99886337 -19.32718994 239.20602448 -18.90380859 238.38916016 C-18.4730603 237.54995529 -18.04231201 236.71075043 -17.59851074 235.84611511 C-16.20184876 233.12782272 -14.79905876 230.41274727 -13.39599609 227.69775391 C-12.4287345 225.81867754 -11.46177602 223.93944511 -10.49511719 222.06005859 C-4.75249952 210.90393915 1.02260925 199.7649567 6.84619141 188.65087891 C10.00482436 182.61853549 13.13030789 176.56913337 16.25552368 170.5194397 C19.07779289 165.05689468 21.90359422 159.59617499 24.72900391 154.13525391 C25.27089355 153.08740723 25.8127832 152.03956055 26.37109375 150.95996094 C32.35676002 139.39593149 38.436421 127.89337245 44.72192383 116.48901367 C47.50916967 111.4234387 50.17935127 106.32475915 52.72900391 101.13525391 C56.5297525 102.40217011 56.68498958 103.42209235 58.44384766 106.92822266 C58.95842529 107.93876709 59.47300293 108.94931152 60.00317383 109.99047852 C60.55207275 111.09012939 61.10097168 112.18978027 61.66650391 113.32275391 C62.84693242 115.64141172 64.0292572 117.95910501 65.21337891 120.27587891 C65.80699219 121.44054687 66.40060547 122.60521484 67.01220703 123.80517578 C69.40111035 128.4389416 71.89701079 133.00905266 74.41650391 137.57275391 C79.67089349 147.12041876 84.76986123 156.74633331 89.85400391 166.38525391 C94.87591107 175.90266315 99.9074746 185.40683489 105.18139648 194.7878418 C108.53862003 200.7619044 111.79151549 206.78979261 115.04150391 212.82275391 C119.83384995 221.70436254 124.73532649 230.51641727 129.71923828 239.29174805 C137.85615811 253.62470441 145.83022042 268.04926024 153.77978516 282.48681641 C160.95613186 295.51930698 168.17730416 308.52242415 175.51806641 321.46337891 C178.94510209 327.50761539 182.33832321 333.57056865 185.72900391 339.63525391 C190.18606017 347.60625603 194.66428724 355.56467906 199.16650391 363.51025391 C207.89522576 378.9273207 216.48928633 394.41967627 225.02587891 409.94384766 C225.74551839 411.25163074 226.46516353 412.55941071 227.18481445 413.8671875 C228.55057307 416.34932406 229.91368083 418.83288949 231.27514648 421.31738281 C231.9005835 422.45481934 232.52602051 423.59225586 233.17041016 424.76416016 C233.7648291 425.84584473 234.35924805 426.9275293 234.97167969 428.04199219 C237.10354781 431.79453027 239.40034817 435.42672403 241.77563477 439.02954102 C242.93268222 441.58511958 242.51124438 442.52344142 241.72900391 445.13525391 C234.98514278 445.33822733 228.24206936 445.47824289 221.49584961 445.57470703 C219.20160491 445.61491996 216.90756499 445.66950065 214.61401367 445.73876953 C211.31459089 445.83591642 208.01787778 445.88120194 204.71728516 445.91650391 C203.69315018 445.95779419 202.6690152 445.99908447 201.61384583 446.04162598 C194.66587881 446.04599639 194.66587881 446.04599639 192.04684448 443.50001526 C190.73050053 441.43218158 189.70920115 439.37977298 188.72900391 437.13525391 C188.18566406 436.16837646 187.64232422 435.20149902 187.08251953 434.20532227 C186.60492187 433.30434814 186.12732422 432.40337402 185.63525391 431.47509766 C185.08675781 430.44642578 184.53826172 429.41775391 183.97314453 428.35791016 C183.39757812 427.27380859 182.82201172 426.18970703 182.22900391 425.07275391 C177.66581499 416.5330031 173.02708948 408.04611119 168.22900391 399.63525391 C162.92112841 390.32273606 157.8067167 380.91630981 152.74414062 371.46850586 C149.48881516 365.39615898 146.21147201 359.33925166 142.85400391 353.32275391 C142.27694702 352.2886438 142.27694702 352.2886438 141.68823242 351.23364258 C140.85256264 349.73647772 140.01686795 348.23932677 139.18115234 346.7421875 C136.10142453 341.21338226 133.03902028 335.67498528 129.97900391 330.13525391 C129.63599243 329.51439911 129.29298096 328.89354431 128.9395752 328.25387573 C124.10320112 319.49492627 119.3298671 310.70445814 114.60400391 301.88525391 C105.11171394 284.19263533 95.29180972 266.69854022 85.12841797 249.3828125 C81.9311332 243.93066627 78.76446965 238.46312079 75.64306641 232.96728516 C75.29885651 232.3612999 74.95464661 231.75531464 74.6000061 231.13096619 C73.904835 229.90683757 73.2096954 228.68269106 72.5145874 227.45852661 C66.49382762 216.85823507 60.34456644 206.3766536 53.72900391 196.13525391 C50.09397972 199.33343395 48.11731705 202.8885375 46.07275391 207.19775391 C45.37126998 208.63802323 44.66943204 210.07812017 43.96728516 211.51806641 C43.6026416 212.27249023 43.23799805 213.02691406 42.86230469 213.80419922 C40.94661493 217.74452791 38.97545874 221.65695392 37.01025391 225.57275391 C36.29189076 227.0088197 35.57379923 228.44502139 34.85595703 229.88134766 C31.14697266 237.29931641 27.43798828 244.71728516 23.72900391 252.13525391 C37.58900391 252.46525391 51.44900391 252.79525391 65.72900391 253.13525391 C70.29150391 261.82275391 70.29150391 261.82275391 71.77929688 264.66992188 C73.79016647 268.50928169 75.81415541 272.3299294 77.98681641 276.08056641 C78.62361328 277.19173828 79.26041016 278.30291016 79.91650391 279.44775391 C80.48755859 280.41326172 81.05861328 281.37876953 81.64697266 282.37353516 C82.99559227 285.81567979 82.77857808 287.61609346 81.72900391 291.13525391 C80.57366085 293.2787714 80.57366085 293.2787714 78.72900391 295.13525391 C75.87097263 295.67613125 75.87097263 295.67613125 72.35121155 295.73350525 C71.03866866 295.76416108 69.72612577 295.79481691 68.37380886 295.82640171 C66.93500152 295.83992567 65.49618928 295.85293681 64.05737305 295.86547852 C62.56201083 295.89247962 61.06667664 295.92107645 59.57137394 295.95119381 C55.70450614 296.02371527 51.83777408 296.07176069 47.9704423 296.11130667 C45.85181655 296.13394179 43.73334591 296.16174822 41.61481857 296.19212723 C32.9482942 296.31480266 24.28193204 296.38737028 15.61476398 296.43857694 C11.89591375 296.46131625 8.17709349 296.48831194 4.45826721 296.51463318 C-1.8081613 296.55838293 -8.07460323 296.59917367 -14.34106445 296.63793945 C-20.61387268 296.67676495 -26.88665429 296.7182936 -33.15942383 296.76293945 C-75.863883 297.06669169 -118.56544862 297.20021061 -161.27099609 297.13525391 C-159.84254152 292.63810294 -158.14513385 289.05266432 -155.58740234 285.07666016 C-151.47595273 278.56983052 -147.80239852 271.8801375 -144.20849609 265.07275391 C-143.55960257 263.85132909 -142.9102584 262.63014359 -142.26049805 261.40917969 C-140.92053108 258.89053069 -139.58245354 256.37089162 -138.24560547 253.85058594 C-135.77362558 249.19435785 -133.27784034 244.5509698 -130.78295898 239.90698242 C-124.181662 227.61689211 -117.64087723 215.29547925 -111.12210083 202.9614563 C-105.9128028 193.10576135 -100.6719115 183.26793828 -95.39599609 173.44775391 C-89.86220015 163.14382148 -84.41334274 152.79897389 -79.02099609 142.42041016 C-76.51982975 137.60653341 -73.99255012 132.80687479 -71.45849609 128.01025391 C-66.8956942 119.36361827 -62.40545903 110.67971444 -57.91882324 101.9934082 C-53.69889036 93.8235169 -49.46677885 85.66024555 -45.20849609 77.51025391 C-43.74169407 74.70060844 -42.27510118 71.89085393 -40.80859375 69.08105469 C-39.74606708 67.0454169 -38.68322118 65.00994572 -37.62011719 62.97460938 C-32.17093095 52.53460871 -26.72375501 42.0953198 -21.48193359 31.54931641 C-21.16966827 30.92149765 -20.85740295 30.29367889 -20.53567505 29.64683533 C-19.03846791 26.63362368 -17.54751112 23.61763108 -16.06445312 20.59741211 C-15.5241748 19.50517334 -14.98389648 18.41293457 -14.42724609 17.28759766 C-13.96125 16.33876709 -13.49525391 15.38993652 -13.01513672 14.41235352 C-12.43957031 13.33091064 -11.86400391 12.24946777 -11.27099609 11.13525391 C-10.89897064 10.28574158 -10.52694519 9.43622925 -10.14364624 8.56097412 C-7.61475974 3.40988385 -5.95919167 0.56367667 0 0 Z " fill="#F7F7F8" transform="translate(485.27099609375,250.86474609375)"/>
<path d="M0 0 C7.20806164 -0.12657807 14.41583774 -0.21425772 21.62475586 -0.2746582 C24.07798981 -0.29983207 26.53114855 -0.33397363 28.98413086 -0.37719727 C32.50653616 -0.43771969 36.02795167 -0.46618148 39.55078125 -0.48828125 C40.65086014 -0.51408768 41.75093903 -0.5398941 42.88435364 -0.56648254 C45.67402787 -0.56751458 48.25888178 -0.51670251 51 0 C52.9934082 2.11743164 52.9934082 2.11743164 54 5 C54.55929199 6.02577148 55.11858398 7.05154297 55.69482422 8.10839844 C56.61545654 9.84138184 56.61545654 9.84138184 57.5546875 11.609375 C58.06222565 12.56354309 58.06222565 12.56354309 58.58001709 13.5369873 C61.59992293 19.21878222 64.60597409 24.90795924 67.61038208 30.59796143 C69.75202166 34.65151316 71.90717837 38.69725901 74.08065796 42.73382568 C75.60413865 45.56791069 77.11310271 48.40972317 78.625 51.25 C79.18687012 52.28350586 79.74874023 53.31701172 80.32763672 54.38183594 C80.83053223 55.33348633 81.33342773 56.28513672 81.8515625 57.265625 C82.29322754 58.08836914 82.73489258 58.91111328 83.18994141 59.75878906 C84.1219805 62.33748674 83.99420095 63.47931392 83 66 C82 67 82 67 79.66365141 67.1241985 C78.61600302 67.12381878 77.56835462 67.12343906 76.48895931 67.12304783 C74.68331553 67.1260344 74.68331553 67.1260344 72.84119409 67.12908131 C71.48819964 67.12622772 70.13520538 67.12328211 68.7822113 67.12025452 C67.35829193 67.12069009 65.93437263 67.12156475 64.51045376 67.12284368 C60.57916001 67.12509131 56.64789323 67.12106372 52.71660292 67.11606562 C48.48413378 67.11176513 44.25166627 67.11320726 40.01919556 67.1139679 C32.68001886 67.11449339 25.34085103 67.11134397 18.00167656 67.10573006 C7.39033604 67.09761844 -3.22100017 67.09500019 -13.83234345 67.09374207 C-31.04667866 67.09155101 -48.26100915 67.08488948 -65.4753418 67.07543945 C-82.20190406 67.06626671 -98.92846503 67.05918521 -115.6550293 67.05493164 C-116.68528005 67.05466892 -117.7155308 67.05440619 -118.77700127 67.05413551 C-123.94523521 67.05283051 -129.11346916 67.0515668 -134.28170311 67.05032361 C-177.18780535 67.03994933 -220.09390243 67.02232957 -263 67 C-261.50203629 63.97763851 -259.91380858 61.03596152 -258.2421875 58.10546875 C-257.42621094 56.66977539 -257.42621094 56.66977539 -256.59375 55.20507812 C-255.47213677 53.23588217 -254.34977529 51.26711215 -253.2265625 49.29882812 C-248.66494548 41.26803742 -244.3514407 33.15895131 -240 25 C-156.51 25 -73.02 25 13 25 C8.71 17.74 4.42 10.48 0 3 C0 2.01 0 1.02 0 0 Z " fill="#F8F8F8" transform="translate(534,575)"/>
<path d="M0 0 C26.73 0.33 53.46 0.66 81 1 C81 1.33 81 1.66 81 2 C64.71562918 3.27172362 48.4166877 3.1188721 32.09606934 3.06866455 C28.35441664 3.05827964 24.61275682 3.05383503 20.87109375 3.04882812 C13.58071021 3.03822837 6.29036113 3.02125034 -1 3 C-0.67 2.01 -0.34 1.02 0 0 Z " fill="#CBCBCB" transform="translate(325,545)"/>
</svg>
